<svg width="292" height="75" viewBox="0 0 292 75" fill="none" xmlns="http://www.w3.org/2000/svg">
<rect x="0.431193" y="0.431193" width="291.138" height="74.1376" rx="3.88073" stroke="#9747FF" stroke-width="0.862385" stroke-dasharray="8.62 4.31"/>
<rect x="29.3586" y="17.5476" width="53.3929" height="40.7946" rx="6.89908" stroke="#484848" stroke-width="0.59992"/>
<path d="M60.2295 38.9448H48.0562V36.9451H60.2295L54.6303 31.3459L56.0551 29.946L64.054 37.945L56.0551 45.9439L54.6303 44.5441L60.2295 38.9448Z" fill="#484848"/>
<rect x="118.747" y="17.2477" width="53.9928" height="41.3945" rx="7.19904" fill="#6C6C6C"/>
<path d="M149.918 38.9448H137.744V36.9451H149.918L144.318 31.3459L145.743 29.946L153.742 37.945L145.743 45.9439L144.318 44.5441L149.918 38.9448Z" fill="white"/>
<rect x="208.435" y="17.2477" width="53.9928" height="41.3945" rx="7.19904" fill="#484848"/>
<path d="M239.606 38.9448H227.432V36.9451H239.606L234.006 31.3459L235.431 29.946L243.43 37.945L235.431 45.9439L234.006 44.5441L239.606 38.9448Z" fill="white"/>
</svg>
