<svg width="48" height="48" viewBox="0 0 48 48" fill="none" xmlns="http://www.w3.org/2000/svg">
<g clip-path="url(#clip0_154_1598)">
<path d="M39 25.5C40.0312 25.5 41 25.6953 41.9062 26.0859C42.8125 26.4766 43.6094 27.0078 44.2969 27.6797C44.9844 28.3516 45.5234 29.1484 45.9141 30.0703C46.3047 30.9922 46.5 31.9688 46.5 33C46.5 33.8125 46.375 34.6016 46.125 35.3672C45.875 36.1328 45.5 36.8438 45 37.5V47.4375L39 44.4375L33 47.4375V37.5C32.5156 36.8438 32.1484 36.1328 31.8984 35.3672C31.6484 34.6016 31.5156 33.8125 31.5 33C31.5 31.9688 31.6953 31 32.0859 30.0938C32.4766 29.1875 33.0078 28.3906 33.6797 27.7031C34.3516 27.0156 35.1484 26.4766 36.0703 26.0859C36.9922 25.6953 37.9688 25.5 39 25.5ZM39 28.5C38.375 28.5 37.7891 28.6172 37.2422 28.8516C36.6953 29.0859 36.2188 29.4062 35.8125 29.8125C35.4062 30.2188 35.0859 30.6953 34.8516 31.2422C34.6172 31.7891 34.5 32.375 34.5 33C34.5 33.625 34.6172 34.2109 34.8516 34.7578C35.0859 35.3047 35.4062 35.7812 35.8125 36.1875C36.2188 36.5938 36.6953 36.9141 37.2422 37.1484C37.7891 37.3828 38.375 37.5 39 37.5C39.625 37.5 40.2109 37.3828 40.7578 37.1484C41.3047 36.9141 41.7812 36.5938 42.1875 36.1875C42.5938 35.7812 42.9141 35.3047 43.1484 34.7578C43.3828 34.2109 43.5 33.625 43.5 33C43.5 32.375 43.3828 31.7891 43.1484 31.2422C42.9141 30.6953 42.5938 30.2188 42.1875 29.8125C41.7812 29.4062 41.3047 29.0859 40.7578 28.8516C40.2109 28.6172 39.625 28.5 39 28.5ZM42 42.5625V39.8672C41.0625 40.2891 40.0625 40.5 39 40.5C37.9375 40.5 36.9375 40.2891 36 39.8672V42.5625L39 41.0625L42 42.5625ZM39 12C38.1719 12 37.3984 12.1562 36.6797 12.4688C35.9609 12.7812 35.3203 13.2109 34.7578 13.7578C34.1953 14.3047 33.7656 14.9375 33.4688 15.6562C33.1719 16.375 33.0156 17.1562 33 18C33 19.4375 32.6797 20.7891 32.0391 22.0547C31.3984 23.3203 30.4922 24.3906 29.3203 25.2656C29.6172 25.4062 29.8984 25.5625 30.1641 25.7344C30.4297 25.9062 30.7031 26.0859 30.9844 26.2734L29.2266 28.7109C28.4609 28.1641 27.6328 27.7422 26.7422 27.4453C25.8516 27.1484 24.9375 27 24 27C22.75 27 21.5859 27.2344 20.5078 27.7031C19.4297 28.1719 18.4766 28.8125 17.6484 29.625C16.8203 30.4375 16.1719 31.3984 15.7031 32.5078C15.2344 33.6172 15 34.7812 15 36H12C12 34.8594 12.1562 33.7578 12.4688 32.6953C12.7812 31.6328 13.2266 30.6328 13.8047 29.6953C14.3828 28.7578 15.0781 27.9141 15.8906 27.1641C16.7031 26.4141 17.625 25.7734 18.6562 25.2422C17.5 24.3828 16.6016 23.3203 15.9609 22.0547C15.3203 20.7891 15 19.4375 15 18C15 17.1719 14.8438 16.3984 14.5312 15.6797C14.2188 14.9609 13.7891 14.3203 13.2422 13.7578C12.6953 13.1953 12.0625 12.7656 11.3438 12.4688C10.625 12.1719 9.84375 12.0156 9 12C8.17188 12 7.39844 12.1562 6.67969 12.4688C5.96094 12.7812 5.32031 13.2109 4.75781 13.7578C4.19531 14.3047 3.76562 14.9375 3.46875 15.6562C3.17188 16.375 3.01562 17.1562 3 18H0C0 17.1875 0.109375 16.3984 0.328125 15.6328C0.546875 14.8672 0.851562 14.1406 1.24219 13.4531C1.63281 12.7656 2.11719 12.1406 2.69531 11.5781C3.27344 11.0156 3.92188 10.5312 4.64062 10.125C4.125 9.57812 3.72656 8.94531 3.44531 8.22656C3.16406 7.50781 3.01562 6.76562 3 6C3 5.17188 3.15625 4.39844 3.46875 3.67969C3.78125 2.96094 4.21094 2.32031 4.75781 1.75781C5.30469 1.19531 5.9375 0.765625 6.65625 0.46875C7.375 0.171875 8.15625 0.015625 9 0C9.82812 0 10.6016 0.15625 11.3203 0.46875C12.0391 0.78125 12.6797 1.21094 13.2422 1.75781C13.8047 2.30469 14.2344 2.9375 14.5312 3.65625C14.8281 4.375 14.9844 5.15625 15 6C15 6.76562 14.8594 7.50781 14.5781 8.22656C14.2969 8.94531 13.8906 9.57812 13.3594 10.125C14.6406 10.8281 15.6875 11.7969 16.5 13.0312C16.9219 12.4062 17.4062 11.8438 17.9531 11.3438C18.5 10.8438 19.0938 10.4219 19.7344 10.0781C20.375 9.73438 21.0547 9.46875 21.7734 9.28125C22.4922 9.09375 23.2344 9 24 9C24.75 9 25.4844 9.09375 26.2031 9.28125C26.9219 9.46875 27.6016 9.73438 28.2422 10.0781C28.8828 10.4219 29.4844 10.8438 30.0469 11.3438C30.6094 11.8438 31.0938 12.4062 31.5 13.0312C32.3125 11.7969 33.3594 10.8281 34.6406 10.125C34.125 9.57812 33.7266 8.94531 33.4453 8.22656C33.1641 7.50781 33.0156 6.76562 33 6C33 5.17188 33.1562 4.39844 33.4688 3.67969C33.7812 2.96094 34.2109 2.32031 34.7578 1.75781C35.3047 1.19531 35.9375 0.765625 36.6562 0.46875C37.375 0.171875 38.1562 0.015625 39 0C39.8281 0 40.6016 0.15625 41.3203 0.46875C42.0391 0.78125 42.6797 1.21094 43.2422 1.75781C43.8047 2.30469 44.2344 2.9375 44.5312 3.65625C44.8281 4.375 44.9844 5.15625 45 6C45 6.76562 44.8594 7.50781 44.5781 8.22656C44.2969 8.94531 43.8906 9.57812 43.3594 10.125C44.0781 10.5312 44.7188 11.0156 45.2812 11.5781C45.8438 12.1406 46.3281 12.7578 46.7344 13.4297C47.1406 14.1016 47.4531 14.8281 47.6719 15.6094C47.8906 16.3906 48 17.1875 48 18H45C45 17.1719 44.8438 16.3984 44.5312 15.6797C44.2188 14.9609 43.7891 14.3203 43.2422 13.7578C42.6953 13.1953 42.0625 12.7656 41.3438 12.4688C40.625 12.1719 39.8438 12.0156 39 12ZM36 6C36 6.42188 36.0781 6.8125 36.2344 7.17188C36.3906 7.53125 36.6016 7.84375 36.8672 8.10938C37.1328 8.375 37.4531 8.59375 37.8281 8.76562C38.2031 8.9375 38.5938 9.01562 39 9C39.4219 9 39.8125 8.92188 40.1719 8.76562C40.5312 8.60938 40.8438 8.39844 41.1094 8.13281C41.375 7.86719 41.5938 7.54688 41.7656 7.17188C41.9375 6.79688 42.0156 6.40625 42 6C42 5.57812 41.9219 5.1875 41.7656 4.82812C41.6094 4.46875 41.3984 4.15625 41.1328 3.89062C40.8672 3.625 40.5469 3.40625 40.1719 3.23438C39.7969 3.0625 39.4062 2.98438 39 3C38.5781 3 38.1875 3.07812 37.8281 3.23438C37.4688 3.39062 37.1562 3.60156 36.8906 3.86719C36.625 4.13281 36.4062 4.45312 36.2344 4.82812C36.0625 5.20312 35.9844 5.59375 36 6ZM6 6C6 6.42188 6.07812 6.8125 6.23438 7.17188C6.39062 7.53125 6.60156 7.84375 6.86719 8.10938C7.13281 8.375 7.45312 8.59375 7.82812 8.76562C8.20312 8.9375 8.59375 9.01562 9 9C9.42188 9 9.8125 8.92188 10.1719 8.76562C10.5312 8.60938 10.8438 8.39844 11.1094 8.13281C11.375 7.86719 11.5938 7.54688 11.7656 7.17188C11.9375 6.79688 12.0156 6.40625 12 6C12 5.57812 11.9219 5.1875 11.7656 4.82812C11.6094 4.46875 11.3984 4.15625 11.1328 3.89062C10.8672 3.625 10.5469 3.40625 10.1719 3.23438C9.79688 3.0625 9.40625 2.98438 9 3C8.57812 3 8.1875 3.07812 7.82812 3.23438C7.46875 3.39062 7.15625 3.60156 6.89062 3.86719C6.625 4.13281 6.40625 4.45312 6.23438 4.82812C6.0625 5.20312 5.98438 5.59375 6 6ZM18 18C18 18.8281 18.1562 19.6016 18.4688 20.3203C18.7812 21.0391 19.2109 21.6797 19.7578 22.2422C20.3047 22.8047 20.9375 23.2344 21.6562 23.5312C22.375 23.8281 23.1562 23.9844 24 24C24.8281 24 25.6016 23.8438 26.3203 23.5312C27.0391 23.2188 27.6797 22.7891 28.2422 22.2422C28.8047 21.6953 29.2344 21.0625 29.5312 20.3438C29.8281 19.625 29.9844 18.8438 30 18C30 17.1719 29.8438 16.3984 29.5312 15.6797C29.2188 14.9609 28.7891 14.3203 28.2422 13.7578C27.6953 13.1953 27.0625 12.7656 26.3438 12.4688C25.625 12.1719 24.8438 12.0156 24 12C23.1719 12 22.3984 12.1562 21.6797 12.4688C20.9609 12.7812 20.3203 13.2109 19.7578 13.7578C19.1953 14.3047 18.7656 14.9375 18.4688 15.6562C18.1719 16.375 18.0156 17.1562 18 18Z" fill="#02A4EF"/>
</g>
<defs>
<clipPath id="clip0_154_1598">
<rect width="48" height="48" fill="white"/>
</clipPath>
</defs>
</svg>
