<svg width="340" height="71" viewBox="0 0 340 71" fill="none" xmlns="http://www.w3.org/2000/svg">
<rect x="0.350309" y="0.350309" width="339.099" height="69.3612" rx="3.15278" stroke="#9747FF" stroke-width="0.700619" stroke-dasharray="7.01 3.5"/>
<rect x="14.0125" y="14.0125" width="42.0371" height="42.0371" rx="21.0186" fill="#006494"/>
<path d="M37.5741 33.458V39.0066L38.9737 38.9942V31.0676H31.0471L31.0347 32.4671L36.5833 32.4671L30.5517 38.4988L31.5425 39.4896L37.5741 33.458Z" fill="white"/>
<rect x="121.908" y="14.0125" width="42.0371" height="42.0371" rx="21.0186" fill="#7B5800"/>
<path d="M145.469 33.458V39.0066L146.869 38.9942V31.0676H138.942L138.93 32.4671L144.479 32.4671L138.447 38.4988L139.438 39.4896L145.469 33.458Z" fill="white"/>
<rect x="229.803" y="14.0125" width="42.0371" height="42.0371" rx="21.0186" fill="#932C00"/>
<path d="M253.365 33.458V39.0066L254.764 38.9942V31.0676H246.838L246.825 32.4671L252.374 32.4671L246.342 38.4988L247.333 39.4896L253.365 33.458Z" fill="white"/>
<rect x="67.96" y="14.0125" width="42.0371" height="42.0371" rx="21.0186" fill="#29B0FC"/>
<path d="M91.5216 33.458V39.0066L92.9212 38.9942V31.0676H84.9946L84.9822 32.4671L90.5308 32.4671L84.4992 38.4988L85.49 39.4896L91.5216 33.458Z" fill="#001E31"/>
<rect x="175.855" y="14.0125" width="42.0371" height="42.0371" rx="21.0186" fill="#FFC44B"/>
<path d="M199.417 33.458V39.0066L200.816 38.9942V31.0676H192.89L192.877 32.4671L198.426 32.4671L192.394 38.4988L193.385 39.4896L199.417 33.458Z" fill="#4E3700"/>
<rect x="283.75" y="14.0125" width="42.0371" height="42.0371" rx="21.0186" fill="#D24200"/>
<path d="M307.312 33.458V39.0066L308.712 38.9942V31.0676H300.785L300.773 32.4671L306.321 32.4671L300.29 38.4988L301.281 39.4896L307.312 33.458Z" fill="white"/>
</svg>
