<svg width="48" height="48" viewBox="0 0 48 48" fill="none" xmlns="http://www.w3.org/2000/svg">
<g clip-path="url(#clip0_154_1602)">
<path d="M20.65 29.526C18.1546 28.8005 15.9621 27.2845 14.4022 25.206C12.8423 23.1275 11.9993 20.5988 12 18V2H36V20M12 6H2V14C2 19.018 5.582 22 10 22H12M40.068 21.77C43.484 20.98 46 18.206 46 14V6H36M20 38H10V46H33M33 46C29.5522 46 26.2456 44.6304 23.8076 42.1924C21.3696 39.7544 20 36.4478 20 33C20 29.5522 21.3696 26.2456 23.8076 23.8076C26.2456 21.3696 29.5522 20 33 20C36.4478 20 39.7544 21.3696 42.1924 23.8076C44.6304 26.2456 46 29.5522 46 33C46 36.4478 44.6304 39.7544 42.1924 42.1924C39.7544 44.6304 36.4478 46 33 46ZM40 28L31 37L26 32M20.412 30.848C19.0856 31.5136 17.9705 32.535 17.1913 33.7981C16.4122 35.0611 15.9997 36.516 16 38" stroke="#02A4EF" stroke-width="4"/>
</g>
<defs>
<clipPath id="clip0_154_1602">
<rect width="48" height="48" fill="white"/>
</clipPath>
</defs>
</svg>
