<svg width="48" height="48" viewBox="0 0 48 48" fill="none" xmlns="http://www.w3.org/2000/svg">
<mask id="mask0_154_1608" style="mask-type:alpha" maskUnits="userSpaceOnUse" x="0" y="0" width="48" height="48">
<rect width="48" height="48" fill="#D9D9D9"/>
</mask>
<g mask="url(#mask0_154_1608)">
<path d="M23.75 39.9999C23.8833 39.9999 24.0166 39.9666 24.15 39.8999C24.2833 39.8333 24.3833 39.7666 24.45 39.6999L40.85 23.2999C41.25 22.8999 41.5416 22.4499 41.725 21.9499C41.9083 21.4499 42 20.9499 42 20.4499C42 19.9166 41.9083 19.4083 41.725 18.9249C41.5416 18.4416 41.25 18.0166 40.85 17.6499L32.35 9.14994C31.9833 8.74994 31.5583 8.45827 31.075 8.27494C30.5916 8.09161 30.0833 7.99994 29.55 7.99994C29.05 7.99994 28.55 8.09161 28.05 8.27494C27.55 8.45827 27.1 8.74994 26.7 9.14994L26.15 9.69994L29.85 13.4499C30.35 13.9166 30.7166 14.4499 30.95 15.0499C31.1833 15.6499 31.3 16.2833 31.3 16.9499C31.3 18.3499 30.825 19.5249 29.875 20.4749C28.925 21.4249 27.75 21.8999 26.35 21.8999C25.6833 21.8999 25.0416 21.7833 24.425 21.5499C23.8083 21.3166 23.2666 20.9666 22.8 20.4999L19.05 16.7999L10.3 25.5499C10.2 25.6499 10.125 25.7583 10.075 25.8749C10.025 25.9916 9.99998 26.1166 9.99998 26.2499C9.99998 26.5166 10.1 26.7583 10.3 26.9749C10.5 27.1916 10.7333 27.2999 11 27.2999C11.1333 27.2999 11.2666 27.2666 11.4 27.1999C11.5333 27.1333 11.6333 27.0666 11.7 26.9999L18.5 20.1999L21.3 22.9999L14.55 29.7999C14.45 29.8999 14.375 30.0083 14.325 30.1249C14.275 30.2416 14.25 30.3666 14.25 30.4999C14.25 30.7666 14.35 30.9999 14.55 31.1999C14.75 31.3999 14.9833 31.4999 15.25 31.4999C15.3833 31.4999 15.5166 31.4666 15.65 31.3999C15.7833 31.3333 15.8833 31.2666 15.95 31.1999L22.75 24.4499L25.55 27.2499L18.8 34.0499C18.7 34.1166 18.625 34.2166 18.575 34.3499C18.525 34.4833 18.5 34.6166 18.5 34.7499C18.5 35.0166 18.6 35.2499 18.8 35.4499C19 35.6499 19.2333 35.7499 19.5 35.7499C19.6333 35.7499 19.7583 35.7249 19.875 35.6749C19.9916 35.6249 20.1 35.5499 20.2 35.4499L27 28.6999L29.8 31.4999L23 38.2999C22.9 38.3999 22.825 38.5083 22.775 38.6249C22.725 38.7416 22.7 38.8666 22.7 38.9999C22.7 39.2666 22.8083 39.4999 23.025 39.6999C23.2416 39.8999 23.4833 39.9999 23.75 39.9999ZM23.7 43.9999C22.4666 43.9999 21.375 43.5916 20.425 42.7749C19.475 41.9583 18.9166 40.9333 18.75 39.6999C17.6166 39.5333 16.6666 39.0666 15.9 38.2999C15.1333 37.5333 14.6666 36.5833 14.5 35.4499C13.3666 35.2833 12.425 34.8083 11.675 34.0249C10.925 33.2416 10.4666 32.2999 10.3 31.1999C9.03331 31.0333 7.99998 30.4833 7.19998 29.5499C6.39998 28.6166 5.99998 27.5166 5.99998 26.2499C5.99998 25.5833 6.12498 24.9416 6.37498 24.3249C6.62498 23.7083 6.98331 23.1666 7.44998 22.6999L19.05 11.1499L25.6 17.6999C25.6666 17.7999 25.7666 17.8749 25.9 17.9249C26.0333 17.9749 26.1666 17.9999 26.3 17.9999C26.6 17.9999 26.85 17.9083 27.05 17.7249C27.25 17.5416 27.35 17.2999 27.35 16.9999C27.35 16.8666 27.325 16.7333 27.275 16.5999C27.225 16.4666 27.15 16.3666 27.05 16.2999L19.9 9.14994C19.5333 8.74994 19.1083 8.45827 18.625 8.27494C18.1416 8.09161 17.6333 7.99994 17.1 7.99994C16.6 7.99994 16.1 8.09161 15.6 8.27494C15.1 8.45827 14.65 8.74994 14.25 9.14994L7.19998 16.2499C6.89998 16.5499 6.64998 16.8999 6.44998 17.2999C6.24998 17.6999 6.11665 18.0999 6.04998 18.4999C5.98331 18.8999 5.98331 19.3083 6.04998 19.7249C6.11665 20.1416 6.24998 20.5333 6.44998 20.8999L3.54998 23.7999C2.98331 23.0333 2.56665 22.1916 2.29998 21.2749C2.03331 20.3583 1.93331 19.4333 1.99998 18.4999C2.06665 17.5666 2.29998 16.6583 2.69998 15.7749C3.09998 14.8916 3.64998 14.0999 4.34998 13.3999L11.4 6.34994C12.2 5.58327 13.0916 4.99994 14.075 4.59994C15.0583 4.19994 16.0666 3.99994 17.1 3.99994C18.1333 3.99994 19.1416 4.19994 20.125 4.59994C21.1083 4.99994 21.9833 5.58327 22.75 6.34994L23.3 6.89994L23.85 6.34994C24.65 5.58327 25.5416 4.99994 26.525 4.59994C27.5083 4.19994 28.5166 3.99994 29.55 3.99994C30.5833 3.99994 31.5916 4.19994 32.575 4.59994C33.5583 4.99994 34.4333 5.58327 35.2 6.34994L43.65 14.7999C44.4166 15.5666 45 16.4499 45.4 17.4499C45.8 18.4499 46 19.4666 46 20.4999C46 21.5333 45.8 22.5416 45.4 23.5249C45 24.5083 44.4166 25.3833 43.65 26.1499L27.25 42.4999C26.7833 42.9666 26.2416 43.3333 25.625 43.5999C25.0083 43.8666 24.3666 43.9999 23.7 43.9999Z" fill="#02A4EF"/>
</g>
</svg>
