<svg width="149" height="103" viewBox="0 0 149 103" fill="none" xmlns="http://www.w3.org/2000/svg">
<path d="M9.23938 79.7648H6.0387L0 96.6509H2.87831C4.46714 92.1377 6.05405 87.6245 7.63903 83.1113C9.21635 87.6219 10.793 92.1338 12.3691 96.647H15.2819L9.23938 79.7648Z" fill="#02A4EF"/>
<path d="M28.9583 86.3363C28.4419 85.3376 27.6577 84.5025 26.6935 83.9243C25.7294 83.3462 24.6233 83.0478 23.4991 83.0626C22.5479 83.0464 21.6072 83.2632 20.759 83.694C20.0117 84.062 19.3561 84.5924 18.8401 85.2463V83.2814H16.0789V103H18.844V94.7045C19.3782 95.3441 20.0386 95.8667 20.7839 96.2396C21.6253 96.6631 22.5573 96.8752 23.4991 96.8574C24.6249 96.8691 25.7311 96.5624 26.6902 95.9728C27.6608 95.3744 28.4461 94.5181 28.9583 93.4994C29.5204 92.3839 29.8029 91.1485 29.7815 89.8996C29.8053 88.6621 29.5225 87.438 28.9583 86.3363ZM26.3986 92.327C26.0513 92.9836 25.5294 93.5314 24.8903 93.91C24.2849 94.2698 23.5932 94.4588 22.8889 94.4569C22.1755 94.4558 21.4756 94.2617 20.8635 93.8952C20.2514 93.5286 19.7498 93.0033 19.4119 92.3749C19.0175 91.6325 18.8194 90.8016 18.8363 89.961C18.8181 89.124 19.0164 88.2965 19.4119 87.5586C19.7609 86.9125 20.2815 86.3753 20.9163 86.0062C21.5167 85.6551 22.1992 85.469 22.8947 85.467C23.5936 85.4637 24.2813 85.6423 24.8903 85.9851C25.5246 86.3466 26.045 86.8783 26.3928 87.5202C26.7901 88.2533 26.9886 89.0775 26.9685 89.9111C26.9851 90.7515 26.789 91.5826 26.3986 92.327Z" fill="#02A4EF"/>
<path d="M43.9122 86.3363C43.3966 85.3379 42.6131 84.5027 41.6495 83.9245C40.686 83.3463 39.5804 83.0479 38.4568 83.0627C37.5049 83.0461 36.5635 83.2628 35.7147 83.694C34.9676 84.0623 34.3121 84.5926 33.7959 85.2464V83.2814H31.0308V103H33.7959V94.7045C34.3304 95.3446 34.9915 95.8673 35.7378 96.2396C36.5797 96.6636 37.5124 96.8756 38.4549 96.8575C39.58 96.8685 40.6854 96.5619 41.6441 95.9729C42.6144 95.3747 43.3991 94.5183 43.9102 93.4994C44.4744 92.3846 44.7583 91.149 44.7373 89.8996C44.7612 88.6619 44.4777 87.4375 43.9122 86.3363ZM41.3543 92.327C41.0109 92.9826 40.4929 93.5305 39.8576 93.9101C39.256 94.2661 38.5702 94.4549 37.8712 94.457C37.1722 94.459 36.4853 94.2742 35.8817 93.9216C35.2435 93.5568 34.7199 93.0212 34.3696 92.375C33.9734 91.6332 33.7751 90.8018 33.7939 89.961C33.774 89.1238 33.9724 88.2959 34.3696 87.5586C34.718 86.9121 35.2387 86.3747 35.874 86.0062C36.4739 85.6564 37.156 85.4723 37.8504 85.4728C38.5527 85.4658 39.2446 85.6424 39.8576 85.9851C40.4928 86.346 41.014 86.8779 41.362 87.5202C41.7593 88.2533 41.9577 89.0776 41.9376 89.9111C41.9501 90.7527 41.7494 91.5838 41.3543 92.327Z" fill="#02A4EF"/>
<path d="M62.4784 89.3054C62.0122 88.6859 61.3943 88.1969 60.6843 87.8854C59.7971 87.5156 58.8854 87.2079 57.9556 86.9644C57.2844 86.7922 56.6232 86.5828 55.9753 86.3369C55.5233 86.1638 55.1141 85.8947 54.776 85.5482C54.6173 85.3775 54.4938 85.177 54.4128 84.9583C54.3318 84.7396 54.2948 84.5071 54.304 84.2741C54.304 83.5168 54.5541 82.9347 55.0543 82.5279C55.6114 82.1064 56.2982 81.8927 56.9962 81.9235C57.8674 81.9235 58.5709 82.1416 59.1069 82.5778C59.3544 82.7648 59.5598 83.0016 59.7098 83.273C59.8599 83.5444 59.9513 83.8443 59.9781 84.1532H63.0349C62.9223 82.732 62.3466 81.6126 61.3079 80.7952C60.2691 79.9778 58.931 79.569 57.2936 79.569C56.2544 79.5459 55.222 79.742 54.2637 80.1447C53.4302 80.493 52.7157 81.0755 52.2067 81.8218C51.7132 82.5779 51.4597 83.4655 51.4794 84.3681C51.4794 85.4197 51.7218 86.2608 52.2067 86.8915C52.664 87.4983 53.2691 87.9779 53.9644 88.2846C54.8366 88.6464 55.7345 88.9427 56.6508 89.1711C57.3456 89.3415 58.0299 89.5523 58.7001 89.8024C59.1696 89.9797 59.5928 90.2612 59.9378 90.6256C60.2782 91.0032 60.4573 91.4992 60.4367 92.0072C60.4459 92.3458 60.3786 92.6822 60.2397 92.9912C60.1008 93.3002 59.894 93.5738 59.6346 93.7917C59.1037 94.2523 58.3605 94.4825 57.4049 94.4825C56.4826 94.4825 55.7662 94.2478 55.2558 93.7783C54.7495 93.3126 54.4411 92.6705 54.3942 91.9842H51.4295C51.4111 92.8946 51.6833 93.7872 52.2067 94.5324C52.7502 95.278 53.4884 95.8595 54.3405 96.2133C55.3077 96.6216 56.3494 96.8236 57.3991 96.8063C58.478 96.8325 59.5469 96.5954 60.5135 96.1155C61.3418 95.7038 62.0394 95.0701 62.5283 94.2849C62.9801 93.5559 63.2193 92.7152 63.2191 91.8575C63.2191 90.7957 62.9722 89.945 62.4784 89.3054Z" fill="#02A4EF"/>
<path d="M76.6709 86.3365C76.0999 85.3132 75.251 84.4724 74.2224 83.911C73.1509 83.3539 71.9609 83.0629 70.7531 83.0629C69.5453 83.0629 68.3553 83.3539 67.2838 83.911C66.2542 84.4718 65.4046 85.3127 64.8334 86.3365C64.2217 87.4417 63.9126 88.6887 63.9373 89.9517C63.909 91.2142 64.2071 92.4628 64.8027 93.5764C65.3607 94.5938 66.1931 95.4341 67.2051 96.0019C68.251 96.582 69.4305 96.8784 70.6265 96.8615C71.8482 96.8753 73.0536 96.5796 74.1303 96.0019C75.1789 95.4401 76.0486 94.595 76.6402 93.563C77.2674 92.4643 77.5857 91.2165 77.5613 89.9517C77.5877 88.6893 77.2806 87.4422 76.6709 86.3365ZM74.1495 92.4251C73.7987 93.0699 73.2725 93.6021 72.6317 93.9602C72.0194 94.2976 71.3313 94.4733 70.6322 94.4706C70.1118 94.484 69.5946 94.3857 69.1153 94.1825C68.6361 93.9793 68.2059 93.6758 67.8537 93.2924C67.1194 92.5095 66.7516 91.3985 66.7503 89.9593C66.7242 89.1074 66.9073 88.2621 67.2838 87.4974C67.606 86.8612 68.1077 86.3335 68.7268 85.9796C69.3303 85.6393 70.0123 85.4627 70.7051 85.4672C71.4005 85.4632 72.0851 85.6384 72.6931 85.9758C73.3212 86.3299 73.8346 86.8566 74.1725 87.4936C74.5651 88.2533 74.7566 89.1008 74.729 89.9555C74.7541 90.8151 74.5544 91.6664 74.1495 92.4251Z" fill="#02A4EF"/>
<path d="M78.837 78.6975V96.6466H81.6002V78.6975H78.837Z" fill="#02A4EF"/>
<path d="M93.0095 83.2823V90.7276C93.0095 91.9237 92.7063 92.8415 92.1 93.4811C91.4936 94.1208 90.6729 94.4406 89.638 94.4406C88.6031 94.4406 87.787 94.1208 87.1896 93.4811C86.5921 92.8415 86.2934 91.9237 86.2934 90.7276V83.2823H83.5533V91.1401C83.5533 92.3528 83.7912 93.3878 84.2671 94.2449C84.716 95.0715 85.3997 95.7466 86.232 96.1848C87.1063 96.6313 88.077 96.856 89.0585 96.8392C89.8313 96.8432 90.5961 96.6822 91.3017 96.3671C91.9691 96.0783 92.5555 95.6303 93.0095 95.0623V96.6415H95.7765V83.2823H93.0095Z" fill="#02A4EF"/>
<path d="M104.319 85.5344V83.2816H101.069V79.9581H98.2804V83.2816H96.7031V85.5344H98.2804V92.9336C98.2804 94.2448 98.6118 95.1908 99.2744 95.7716C99.9371 96.3524 100.891 96.644 102.137 96.6466H104.319V94.3439H102.621C102.045 94.3439 101.661 94.2365 101.422 94.0177C101.182 93.799 101.069 93.4421 101.069 92.9374V85.5344H104.319Z" fill="#02A4EF"/>
<path d="M105.099 83.2819V96.6469H107.864V83.2819H105.099ZM107.743 78.4847C107.582 78.32 107.389 78.1897 107.177 78.1019C106.964 78.0142 106.735 77.9708 106.505 77.9743C106.035 77.9743 105.585 78.1609 105.253 78.4931C104.921 78.8252 104.734 79.2757 104.734 79.7454C104.734 80.2152 104.921 80.6657 105.253 80.9978C105.585 81.33 106.035 81.5166 106.505 81.5166C106.735 81.5201 106.964 81.4767 107.177 81.3889C107.389 81.3012 107.582 81.1709 107.743 81.0061C108.069 80.6675 108.251 80.2156 108.251 79.7454C108.251 79.2753 108.069 78.8234 107.743 78.4847Z" fill="#02A4EF"/>
<path d="M121.793 86.3365C121.222 85.3123 120.372 84.4712 119.342 83.911C118.271 83.3539 117.082 83.0629 115.875 83.0629C114.668 83.0629 113.478 83.3539 112.407 83.911C111.377 84.4711 110.526 85.3122 109.955 86.3365C109.343 87.4417 109.034 88.6887 109.059 89.9516C109.032 91.215 109.333 92.4638 109.932 93.5764C110.488 94.595 111.321 95.4358 112.334 96.0018C113.379 96.5824 114.558 96.8788 115.754 96.8615C116.976 96.8753 118.181 96.5796 119.258 96.0018C120.305 95.439 121.175 94.5942 121.768 93.563C122.395 92.4643 122.713 91.2165 122.689 89.9516C122.713 88.6887 122.404 87.4417 121.793 86.3365ZM119.269 92.4251C118.92 93.07 118.395 93.6025 117.755 93.9602C117.142 94.2976 116.454 94.4732 115.754 94.4706C115.233 94.4839 114.716 94.3857 114.237 94.1825C113.758 93.9793 113.327 93.6758 112.975 93.2924C112.238 92.5095 111.871 91.3985 111.872 89.9593C111.844 89.1071 112.028 88.2613 112.407 87.4974C112.729 86.8615 113.23 86.3338 113.848 85.9796C114.451 85.6396 115.133 85.463 115.825 85.4672C116.521 85.4625 117.206 85.6377 117.815 85.9757C118.442 86.3305 118.956 86.8571 119.294 87.4936C119.687 88.2531 119.88 89.1006 119.853 89.9555C119.877 90.8155 119.676 91.6671 119.269 92.4251Z" fill="#02A4EF"/>
<path d="M135.449 85.6589C135.01 84.829 134.329 84.1519 133.497 83.717C132.623 83.2711 131.652 83.0465 130.671 83.0626C129.899 83.0584 129.135 83.2153 128.428 83.5231C127.758 83.808 127.166 84.2488 126.701 84.8088V83.2737H123.928V96.6386H126.695V89.1742C126.695 87.9769 126.996 87.0635 127.605 86.4206C128.213 85.7778 129.03 85.4612 130.067 85.4612C131.103 85.4612 131.916 85.7797 132.515 86.4206C133.114 87.0615 133.411 87.9769 133.411 89.1742V96.6463H136.153V88.7617C136.184 87.6846 135.941 86.6173 135.449 85.6589Z" fill="#02A4EF"/>
<path d="M147.314 90.8399C146.873 90.3308 146.321 89.9286 145.702 89.6636C144.924 89.3471 144.126 89.0836 143.313 88.8749C142.586 88.6658 142.035 88.4912 141.665 88.353C141.313 88.2283 140.99 88.0323 140.717 87.7773C140.592 87.6642 140.494 87.5257 140.427 87.3711C140.361 87.2164 140.329 87.0494 140.333 86.8812C140.329 86.6654 140.38 86.4521 140.48 86.2612C140.581 86.0703 140.728 85.908 140.909 85.7894C141.292 85.5156 141.851 85.3788 142.584 85.3788C143.326 85.3788 143.917 85.5553 144.353 85.9103C144.569 86.0841 144.745 86.3014 144.871 86.5481C144.996 86.7948 145.068 87.0653 145.082 87.3418H147.847C147.781 86.0152 147.283 84.9681 146.354 84.2006C145.426 83.433 144.201 83.0492 142.68 83.0492C141.753 83.031 140.832 83.2048 139.976 83.5597C139.256 83.8471 138.63 84.3295 138.168 84.9528C137.755 85.52 137.534 86.2044 137.537 86.9062C137.537 87.7773 137.769 88.4835 138.228 89.0169C138.672 89.5373 139.234 89.9445 139.867 90.2047C140.666 90.5214 141.484 90.7892 142.315 91.0068C143.093 91.2061 143.852 91.4732 144.583 91.8051C144.8 91.8987 144.984 92.055 145.112 92.254C145.239 92.453 145.305 92.6856 145.299 92.9218C145.298 93.1525 145.239 93.3793 145.127 93.5807C145.014 93.7822 144.852 93.9516 144.656 94.0732C144.228 94.3706 143.626 94.5222 142.851 94.5222C142.185 94.5454 141.531 94.3425 140.995 93.9465C140.765 93.7831 140.573 93.5714 140.432 93.3262C140.292 93.0809 140.207 92.808 140.183 92.5266H137.336C137.361 93.3195 137.629 94.0856 138.103 94.7217C138.618 95.4 139.299 95.9346 140.08 96.2741C141.846 97.0096 143.829 97.0316 145.612 96.3355C146.324 96.0401 146.94 95.5533 147.393 94.929C147.813 94.3333 148.034 93.62 148.024 92.8911C148.007 92.0468 147.771 91.3631 147.314 90.8399Z" fill="#02A4EF"/>
<path fill-rule="evenodd" clip-rule="evenodd" d="M0 12.2967H33.6551C33.5496 12.6363 16.8304 41.974 15.2339 44.8062C14.547 46.0266 13.8907 47.2201 13.1769 48.429C11.7531 50.8507 10.479 53.2377 9.05708 55.6786C5.03704 62.575 4.31747 64.0065 2.88982 66.5566C2.03209 68.0917 1.32978 69.3563 0.865408 70.2025L16.2932 70.2179C16.6769 69.4081 18.212 66.833 18.7647 65.8524L26.2329 52.7273C27.4399 50.6166 28.808 48.3139 29.9575 46.1878C30.3547 45.4567 30.8133 44.7371 31.2162 43.9696C31.9934 42.4882 32.901 41.0913 33.6935 39.6061C34.0965 38.8577 34.5301 38.1285 34.9293 37.4262C35.3495 36.6913 35.7659 35.9525 36.1996 35.2099L56.056 0.0945435H8.19551L6.14231 3.1302C5.61462 3.93229 0.147753 11.9282 0 12.2967Z" fill="#02A4EF"/>
<path fill-rule="evenodd" clip-rule="evenodd" d="M95.3756 4.70393L97.8989 6.35416C99.4205 7.38076 101.146 8.89283 102.45 10.1555C102.759 10.4548 104.262 11.9841 104.402 12.2873H104.465L104.786 12.1281C104.887 12.0954 105.003 12.0571 105.125 12.0129C106.836 11.4399 108.604 11.0582 110.398 10.875C112.682 10.6492 114.987 10.737 117.247 11.136C120.951 11.807 124.45 13.3297 127.465 15.5839C130.217 17.664 132.7 20.4099 134.313 23.4513C136.052 26.7345 137.288 30.5224 137.29 35.1411C137.29 39.5065 136.054 43.776 134.294 46.8635C132.375 50.2484 130.364 52.4858 127.467 54.7059C122.892 58.2194 116.612 60.0577 110.418 59.4225C109.362 59.3188 108.314 59.1438 107.282 58.8987L104.435 58.0736C104.275 58.1484 104.293 58.1292 104.128 58.3384C102.165 60.8329 98.1292 63.9741 95.3007 65.5802L95.2777 65.6243C95.483 65.6474 96.8397 66.413 97.1601 66.5838C97.7646 66.9042 98.4861 67.2036 99.1404 67.501C100.533 68.105 101.967 68.6084 103.431 69.0073C113.582 71.876 124.166 69.8132 132.406 64.3655C136.712 61.4749 140.333 57.676 143.014 53.2361C145.915 48.3257 148.029 42.3484 148.016 35.0413C147.997 22.5898 141.548 11.823 131.64 5.44078C123.535 0.223368 113.35 -1.33092 103.529 1.27683C101.359 1.87675 99.2504 2.67984 97.2311 3.67542C96.7898 3.90376 95.696 4.41802 95.3698 4.70393H95.3756ZM86.2436 58.0083C85.9808 57.8567 84.7565 56.2123 84.484 55.8342C81.5268 51.7927 79.4744 47.1617 78.4665 42.2563C76.2924 31.8387 79.0018 21.4499 85.3341 13.335C85.6052 12.9672 85.9035 12.6202 86.2264 12.2969H86.3012C86.9843 12.4696 88.2738 13.1201 88.8667 13.4291C89.6854 13.8442 90.4781 14.3088 91.2404 14.8202C92.7007 15.8065 93.048 16.1289 94.347 17.2783C94.5389 17.4491 95.1818 18.1188 95.3065 18.1802L95.318 18.255C94.7807 18.5985 93.1036 20.8609 92.6469 21.5171C91.8334 22.7193 91.132 23.9937 90.5515 25.3241C87.5235 32.1285 87.8651 40.4641 91.511 46.9057C92.3437 48.3756 93.4049 50.0085 94.5812 51.2654C94.8049 51.5474 95.0534 51.8088 95.3238 52.0464L95.3391 52.102C95.0091 52.3975 94.7289 52.7161 94.3797 53.0346C93.399 53.9221 92.3577 54.7402 91.2634 55.4831C90.1735 56.2122 87.4832 57.7109 86.2436 58.0083Z" fill="#FFBA02"/>
<path fill-rule="evenodd" clip-rule="evenodd" d="M95.3122 18.1762L95.3237 18.251C95.483 18.3478 95.6187 18.4789 95.7209 18.6348C95.8399 18.7729 95.9627 18.8842 96.0836 19.0186C96.8511 19.9339 98.0024 21.4229 98.6069 22.4725C99.1643 23.4073 99.666 24.3742 100.109 25.3681C102.765 31.2763 102.85 39.042 100.09 44.9656C99.6304 45.9673 99.118 46.9441 98.5551 47.8918C97.9229 48.9523 97.1973 49.9541 96.3868 50.8853C96.1431 51.1539 95.6039 51.9023 95.3064 52.0462L95.3218 52.1019L96.7456 53.4451C97.9909 54.4793 98.5436 55.0205 100.115 55.9396L100.539 56.2063C101.282 56.6304 103.667 57.893 104.446 58.0216C105.242 57.2195 107.132 54.4659 107.708 53.5295C114.056 43.3595 114.551 30.1346 109.159 19.4023C107.988 17.0728 106.898 15.4648 105.35 13.4135C105.121 13.1123 104.565 12.5385 104.459 12.3006H104.396C103.594 12.4829 101.984 13.3406 101.134 13.7724C100.91 13.8856 100.762 13.9949 100.558 14.1235C99.5356 14.751 98.3152 15.5032 97.3999 16.3053L96.7456 16.8637C96.4558 17.1016 95.435 18.1551 95.3122 18.1896V18.1762ZM95.293 65.6242L93.3741 66.6431C88.3601 69.176 82.4788 70.4194 76.7778 70.2717C67.6804 70.0337 60.2333 66.5375 54.0929 61.1378C53.3316 60.4505 52.6096 59.7208 51.9303 58.9522C50.9938 57.9469 50.1191 56.8857 49.311 55.7746L47.6071 53.186C41.8025 43.701 40.9793 31.2053 45.6882 20.7571C46.3867 19.2124 48.4667 15.3842 49.7178 13.9527C49.8694 13.7781 49.8771 13.7167 50.0172 13.5574C50.9766 12.4503 51.5101 11.6885 52.6921 10.4872L54.1907 9.08647C55.3593 7.92555 58.5351 5.58644 60.0068 4.81314C61.0181 4.28161 61.6609 3.8633 62.8544 3.31066C71.8731 -0.868647 82.2907 -1.13921 91.4457 2.77337C92.1979 3.09382 94.8996 4.30847 95.2585 4.71719L91.5723 7.21173C91.342 7.38059 91.2058 7.48421 90.9794 7.66266C90.7529 7.84112 90.634 7.96009 90.4133 8.14238C90.3193 8.21722 90.2579 8.25943 90.1543 8.34962C90.1159 8.38224 90.0756 8.42254 90.0353 8.46091L87.7326 10.6139C87.5408 10.8058 87.4026 10.9363 87.2203 11.1473C87.038 11.3584 86.3223 12.0358 86.3088 12.2852H86.234C85.3705 11.6885 81.5692 11.0015 80.3296 10.8691C78.0531 10.6362 75.7554 10.7156 73.5004 11.1051C70.2191 11.652 65.798 13.4442 63.2152 15.5473L61.6974 16.7562C61.5247 16.8982 61.375 17.0555 61.21 17.1975C59.483 18.6943 57.5488 21.2579 56.3802 23.3802C52.3006 30.787 52.3985 39.3068 56.313 46.7904C56.734 47.5683 57.1978 48.3223 57.7023 49.0489C58.1925 49.7806 58.7391 50.4729 59.3372 51.1194C59.6346 51.4418 59.8629 51.7584 60.1699 52.0788C60.8934 52.8464 61.3385 53.1783 62.1061 53.8519C63.1027 54.7175 64.1825 55.4824 65.3298 56.1353C71.8789 59.9942 79.0536 60.4777 86.2455 58.0216C86.495 58.4053 86.8864 58.7296 87.1915 59.1L89.0144 60.9306C89.1162 61.0016 89.2142 61.0778 89.308 61.1589C89.475 61.3144 89.6534 61.5082 89.8396 61.6694C90.0257 61.8305 90.2061 61.9706 90.4152 62.1472L92.1748 63.5172C92.3753 63.6719 92.5841 63.8154 92.8004 63.9471L94.0304 64.7952C94.2664 64.9449 94.4679 65.0658 94.6866 65.179C94.9099 65.2856 95.122 65.4142 95.3199 65.5628L95.293 65.6242Z" fill="#6C6C6C"/>
<path fill-rule="evenodd" clip-rule="evenodd" d="M86.244 58.0085V58.0315C86.4934 58.4153 86.8849 58.7396 87.19 59.11L89.0129 60.9406C89.1146 61.0116 89.2126 61.0878 89.3065 61.1689C89.4734 61.3243 89.6519 61.5181 89.838 61.6793C90.0241 61.8405 90.2045 61.9806 90.4137 62.1571L92.1733 63.5272C92.3737 63.6819 92.5826 63.8254 92.7988 63.957L94.0288 64.8052C94.2648 64.9548 94.4663 65.0757 94.6851 65.1889C94.9083 65.2956 95.1205 65.4241 95.3183 65.5727C98.141 63.9666 102.176 60.8293 104.145 58.3309C104.31 58.1217 104.293 58.139 104.452 58.0661L104.464 57.9989C103.685 57.8704 101.299 56.6077 100.557 56.1837L100.11 55.9169C98.5382 55.0036 97.9855 54.4624 96.7402 53.4224L95.3164 52.0792C94.9863 52.3747 94.7062 52.6932 94.357 53.0118C93.3763 53.8993 92.335 54.7174 91.2407 55.4603C90.1719 56.1894 87.4816 57.6881 86.2516 57.9855L86.244 58.0085ZM86.2939 12.2933C86.977 12.466 88.2665 13.1165 88.8594 13.4254C89.6781 13.8406 90.4707 14.3052 91.233 14.8166C92.6933 15.8029 93.0406 16.1253 94.3397 17.2747C94.5316 17.4455 95.1744 18.1151 95.2991 18.1765C95.4219 18.142 96.4505 17.0885 96.7325 16.8506L97.3869 16.2922C98.3022 15.4901 99.5226 14.7379 100.545 14.1105C100.756 13.9819 100.904 13.8725 101.121 13.7593C101.979 13.3275 103.589 12.4698 104.383 12.2875C104.243 11.9843 102.741 10.455 102.432 10.1557C101.127 8.89303 99.4017 7.38096 97.88 6.35436L95.3567 4.70413L95.2396 4.72332L91.5535 7.21786C91.3232 7.38672 91.187 7.49034 90.9606 7.66879C90.7341 7.84725 90.6152 7.96622 90.3945 8.14851C90.3005 8.22335 90.2391 8.26557 90.1354 8.35575C90.0971 8.38837 90.0568 8.42867 90.0165 8.46705L87.7138 10.62C87.5219 10.8119 87.3838 10.9424 87.2015 11.1535C87.0192 11.3645 86.313 12.0438 86.2939 12.2933Z" fill="#6C6E2F"/>
</svg>
