<svg width="1296" height="157" viewBox="0 0 1296 157" fill="none" xmlns="http://www.w3.org/2000/svg">
<mask id="mask0_154_1931" style="mask-type:alpha" maskUnits="userSpaceOnUse" x="0" y="0" width="1296" height="157">
<rect width="1296" height="157" fill="#D9D9D9"/>
</mask>
<g mask="url(#mask0_154_1931)">
<path fill-rule="evenodd" clip-rule="evenodd" d="M253.241 93.8291H255.524L254.876 163.76L253.241 93.8291Z" fill="#F1F2F2"/>
<path fill-rule="evenodd" clip-rule="evenodd" d="M271.198 93.9939L273.481 94.027L271.723 158.464L271.198 93.9939Z" fill="#F1F2F2"/>
<path fill-rule="evenodd" clip-rule="evenodd" d="M288.014 94.1927L290.297 94.2258L289.155 154.063L288.014 94.1927Z" fill="#F1F2F2"/>
<path fill-rule="evenodd" clip-rule="evenodd" d="M305.724 97.6687L308.007 97.7018L306.372 150.754L305.724 97.6687Z" fill="#F1F2F2"/>
<path fill-rule="evenodd" clip-rule="evenodd" d="M323.465 101.374L325.749 101.407L323.743 150.951L323.465 101.374Z" fill="#F1F2F2"/>
<path fill-rule="evenodd" clip-rule="evenodd" d="M340.497 107.696L342.78 107.729L341.515 152.143L340.497 107.696Z" fill="#F1F2F2"/>
<path fill-rule="evenodd" clip-rule="evenodd" d="M358.115 113.455H360.398L358.578 152.343L358.115 113.455Z" fill="#F1F2F2"/>
<path fill-rule="evenodd" clip-rule="evenodd" d="M392.795 121.067L395.078 121.1L393.535 163.528L392.795 121.067Z" fill="#F1F2F2"/>
<path fill-rule="evenodd" clip-rule="evenodd" d="M410.166 123.814L412.449 123.847L410.906 166.276L410.166 123.814Z" fill="#F1F2F2"/>
<path fill-rule="evenodd" clip-rule="evenodd" d="M427.568 124.013H429.851L428.216 177.959L427.568 124.013Z" fill="#F1F2F2"/>
<path fill-rule="evenodd" clip-rule="evenodd" d="M375.301 117.46L377.615 117.493L376.041 159.921L375.301 117.46Z" fill="#F1F2F2"/>
<path fill-rule="evenodd" clip-rule="evenodd" d="M444.97 124.178L447.253 124.211L445.618 178.157L444.97 124.178Z" fill="#F1F2F2"/>
<path fill-rule="evenodd" clip-rule="evenodd" d="M462.402 121.828L464.686 121.861L462.958 182.459L462.402 121.828Z" fill="#F1F2F2"/>
<path fill-rule="evenodd" clip-rule="evenodd" d="M480.082 118.619L482.365 118.652L480.637 179.25L480.082 118.619Z" fill="#F1F2F2"/>
<path fill-rule="evenodd" clip-rule="evenodd" d="M497.761 113.124L500.045 113.157L498.163 189.74L497.761 113.124Z" fill="#F1F2F2"/>
<path fill-rule="evenodd" clip-rule="evenodd" d="M532.226 99.7534H534.509L532.534 186.067L532.226 99.7534Z" fill="#F1F2F2"/>
<path fill-rule="evenodd" clip-rule="evenodd" d="M550.152 93.6966L552.435 93.7297L550.43 183.419L550.152 93.6966Z" fill="#F1F2F2"/>
<path fill-rule="evenodd" clip-rule="evenodd" d="M568.078 90.4872L570.362 90.5203L568.356 180.209L568.078 90.4872Z" fill="#F1F2F2"/>
<path fill-rule="evenodd" clip-rule="evenodd" d="M585.48 89.9572L587.763 89.9903L585.758 179.679L585.48 89.9572Z" fill="#F1F2F2"/>
<path fill-rule="evenodd" clip-rule="evenodd" d="M601.957 86.4488H604.24L601.525 179.878L601.957 86.4488Z" fill="#F1F2F2"/>
<path fill-rule="evenodd" clip-rule="evenodd" d="M620.068 86.6476H622.351L619.914 176.37L620.068 86.6476Z" fill="#F1F2F2"/>
<path fill-rule="evenodd" clip-rule="evenodd" d="M637.717 86.8124L640 86.8455L637.562 176.568L637.717 86.8124Z" fill="#F1F2F2"/>
<path fill-rule="evenodd" clip-rule="evenodd" d="M515.225 106.174H517.508L515.626 185.868L515.225 106.174Z" fill="#F1F2F2"/>
<path fill-rule="evenodd" clip-rule="evenodd" d="M6.77637 129.505L9.05956 129.539L7.45507 171.967L6.77637 129.505Z" fill="#F1F2F2"/>
<path fill-rule="evenodd" clip-rule="evenodd" d="M24.1782 129.738L26.4614 129.771L24.7025 183.684L24.1782 129.738Z" fill="#F1F2F2"/>
<path fill-rule="evenodd" clip-rule="evenodd" d="M41.5801 129.969L43.8633 130.002L42.1044 183.915L41.5801 129.969Z" fill="#F1F2F2"/>
<path fill-rule="evenodd" clip-rule="evenodd" d="M59.0126 127.654H61.2958L59.4446 188.285L59.0126 127.654Z" fill="#F1F2F2"/>
<path fill-rule="evenodd" clip-rule="evenodd" d="M76.6924 124.476H78.9756L77.124 185.108L76.6924 124.476Z" fill="#F1F2F2"/>
<path fill-rule="evenodd" clip-rule="evenodd" d="M94.3718 119.014L96.6859 119.048L94.6494 195.598L94.3718 119.014Z" fill="#F1F2F2"/>
<path fill-rule="evenodd" clip-rule="evenodd" d="M128.867 105.71H131.15L129.021 192.023L128.867 105.71Z" fill="#F1F2F2"/>
<path fill-rule="evenodd" clip-rule="evenodd" d="M146.824 99.6871L149.107 99.7202L146.947 189.442L146.824 99.6871Z" fill="#F1F2F2"/>
<path fill-rule="evenodd" clip-rule="evenodd" d="M164.719 96.51L167.003 96.5431L164.843 186.265L164.719 96.51Z" fill="#F1F2F2"/>
<path fill-rule="evenodd" clip-rule="evenodd" d="M182.121 96.0463H184.436L182.245 185.768L182.121 96.0463Z" fill="#F1F2F2"/>
<path fill-rule="evenodd" clip-rule="evenodd" d="M198.628 92.5379L200.912 92.571L198.042 185.967L198.628 92.5379Z" fill="#F1F2F2"/>
<path fill-rule="evenodd" clip-rule="evenodd" d="M216.74 92.7706L219.023 92.8038L216.431 182.493L216.74 92.7706Z" fill="#F1F2F2"/>
<path fill-rule="evenodd" clip-rule="evenodd" d="M234.389 93.0017L236.672 93.0348L234.08 182.724L234.389 93.0017Z" fill="#F1F2F2"/>
<path fill-rule="evenodd" clip-rule="evenodd" d="M111.866 112.066L114.149 112.099L112.113 191.793L111.866 112.066Z" fill="#F1F2F2"/>
<path fill-rule="evenodd" clip-rule="evenodd" d="M1041.76 93.8291H1039.48L1040.12 163.76L1041.76 93.8291Z" fill="#F1F2F2"/>
<path fill-rule="evenodd" clip-rule="evenodd" d="M1023.8 93.9939L1021.52 94.027L1023.28 158.464L1023.8 93.9939Z" fill="#F1F2F2"/>
<path fill-rule="evenodd" clip-rule="evenodd" d="M1006.99 94.1927L1004.7 94.2258L1005.84 154.063L1006.99 94.1927Z" fill="#F1F2F2"/>
<path fill-rule="evenodd" clip-rule="evenodd" d="M989.276 97.6687L986.993 97.7018L988.628 150.754L989.276 97.6687Z" fill="#F1F2F2"/>
<path fill-rule="evenodd" clip-rule="evenodd" d="M971.535 101.374L969.251 101.407L971.257 150.951L971.535 101.374Z" fill="#F1F2F2"/>
<path fill-rule="evenodd" clip-rule="evenodd" d="M954.503 107.696L952.22 107.729L953.485 152.143L954.503 107.696Z" fill="#F1F2F2"/>
<path fill-rule="evenodd" clip-rule="evenodd" d="M936.885 113.455H934.602L936.422 152.343L936.885 113.455Z" fill="#F1F2F2"/>
<path fill-rule="evenodd" clip-rule="evenodd" d="M902.205 121.067L899.922 121.1L901.465 163.528L902.205 121.067Z" fill="#F1F2F2"/>
<path fill-rule="evenodd" clip-rule="evenodd" d="M884.834 123.814L882.551 123.847L884.094 166.276L884.834 123.814Z" fill="#F1F2F2"/>
<path fill-rule="evenodd" clip-rule="evenodd" d="M867.432 124.013H865.149L866.784 177.959L867.432 124.013Z" fill="#F1F2F2"/>
<path fill-rule="evenodd" clip-rule="evenodd" d="M919.699 117.46L917.385 117.493L918.959 159.921L919.699 117.46Z" fill="#F1F2F2"/>
<path fill-rule="evenodd" clip-rule="evenodd" d="M850.03 124.178L847.747 124.211L849.382 178.157L850.03 124.178Z" fill="#F1F2F2"/>
<path fill-rule="evenodd" clip-rule="evenodd" d="M832.598 121.828L830.314 121.861L832.042 182.459L832.598 121.828Z" fill="#F1F2F2"/>
<path fill-rule="evenodd" clip-rule="evenodd" d="M814.918 118.619L812.635 118.652L814.363 179.25L814.918 118.619Z" fill="#F1F2F2"/>
<path fill-rule="evenodd" clip-rule="evenodd" d="M797.239 113.124L794.955 113.157L796.837 189.74L797.239 113.124Z" fill="#F1F2F2"/>
<path fill-rule="evenodd" clip-rule="evenodd" d="M762.774 99.7534H760.491L762.466 186.067L762.774 99.7534Z" fill="#F1F2F2"/>
<path fill-rule="evenodd" clip-rule="evenodd" d="M744.848 93.6966L742.565 93.7297L744.57 183.419L744.848 93.6966Z" fill="#F1F2F2"/>
<path fill-rule="evenodd" clip-rule="evenodd" d="M726.922 90.4872L724.638 90.5203L726.644 180.209L726.922 90.4872Z" fill="#F1F2F2"/>
<path fill-rule="evenodd" clip-rule="evenodd" d="M709.52 89.9572L707.237 89.9903L709.242 179.679L709.52 89.9572Z" fill="#F1F2F2"/>
<path fill-rule="evenodd" clip-rule="evenodd" d="M693.043 86.4488H690.76L693.475 179.878L693.043 86.4488Z" fill="#F1F2F2"/>
<path fill-rule="evenodd" clip-rule="evenodd" d="M674.932 86.6476H672.649L675.086 176.37L674.932 86.6476Z" fill="#F1F2F2"/>
<path fill-rule="evenodd" clip-rule="evenodd" d="M657.283 86.8124L655 86.8455L657.438 176.568L657.283 86.8124Z" fill="#F1F2F2"/>
<path fill-rule="evenodd" clip-rule="evenodd" d="M779.775 106.174H777.492L779.374 185.868L779.775 106.174Z" fill="#F1F2F2"/>
<path fill-rule="evenodd" clip-rule="evenodd" d="M1288.22 129.505L1285.94 129.539L1287.54 171.967L1288.22 129.505Z" fill="#F1F2F2"/>
<path fill-rule="evenodd" clip-rule="evenodd" d="M1270.82 129.738L1268.54 129.771L1270.3 183.684L1270.82 129.738Z" fill="#F1F2F2"/>
<path fill-rule="evenodd" clip-rule="evenodd" d="M1253.42 129.969L1251.14 130.002L1252.9 183.915L1253.42 129.969Z" fill="#F1F2F2"/>
<path fill-rule="evenodd" clip-rule="evenodd" d="M1235.99 127.654H1233.7L1235.56 188.285L1235.99 127.654Z" fill="#F1F2F2"/>
<path fill-rule="evenodd" clip-rule="evenodd" d="M1218.31 124.476H1216.02L1217.88 185.108L1218.31 124.476Z" fill="#F1F2F2"/>
<path fill-rule="evenodd" clip-rule="evenodd" d="M1200.63 119.014L1198.31 119.048L1200.35 195.598L1200.63 119.014Z" fill="#F1F2F2"/>
<path fill-rule="evenodd" clip-rule="evenodd" d="M1166.13 105.71H1163.85L1165.98 192.023L1166.13 105.71Z" fill="#F1F2F2"/>
<path fill-rule="evenodd" clip-rule="evenodd" d="M1148.18 99.6871L1145.89 99.7202L1148.05 189.442L1148.18 99.6871Z" fill="#F1F2F2"/>
<path fill-rule="evenodd" clip-rule="evenodd" d="M1130.28 96.51L1128 96.5431L1130.16 186.265L1130.28 96.51Z" fill="#F1F2F2"/>
<path fill-rule="evenodd" clip-rule="evenodd" d="M1112.88 96.0463H1110.56L1112.75 185.768L1112.88 96.0463Z" fill="#F1F2F2"/>
<path fill-rule="evenodd" clip-rule="evenodd" d="M1096.37 92.5379L1094.09 92.571L1096.96 185.967L1096.37 92.5379Z" fill="#F1F2F2"/>
<path fill-rule="evenodd" clip-rule="evenodd" d="M1078.26 92.7706L1075.98 92.8038L1078.57 182.493L1078.26 92.7706Z" fill="#F1F2F2"/>
<path fill-rule="evenodd" clip-rule="evenodd" d="M1060.61 93.0017L1058.33 93.0348L1060.92 182.724L1060.61 93.0017Z" fill="#F1F2F2"/>
<path fill-rule="evenodd" clip-rule="evenodd" d="M1183.13 112.066L1180.85 112.099L1182.89 191.793L1183.13 112.066Z" fill="#F1F2F2"/>
</g>
</svg>
