<svg width="187" height="100" viewBox="0 0 187 100" fill="none" xmlns="http://www.w3.org/2000/svg">
<rect x="0.5" y="0.5" width="186" height="99" rx="4.5" stroke="#9747FF" stroke-dasharray="10 5"/>
<path fill-rule="evenodd" clip-rule="evenodd" d="M83.5 32.0633C83.5 26.2649 78.7984 21.5633 73 21.5633C67.2016 21.5633 62.5 26.2649 62.5 32.0633C62.5 37.3039 66.3391 41.6478 71.3594 42.4363V35.0994H68.6927V32.0633H71.3594V29.75C71.3594 27.1189 72.9273 25.6644 75.3255 25.6644C76.4744 25.6644 77.6763 25.8697 77.6763 25.8697V28.4539H76.3516C75.048 28.4539 74.6402 29.263 74.6402 30.0945V32.0633H77.552L77.087 35.0994H74.6406V42.4372C79.6609 41.6492 83.5 37.3053 83.5 32.0633Z" fill="#484848"/>
<path fill-rule="evenodd" clip-rule="evenodd" d="M83.5 68.0633C83.5 62.2649 78.7984 57.5633 73 57.5633C67.2016 57.5633 62.5 62.2649 62.5 68.0633C62.5 73.3039 66.3391 77.6478 71.3594 78.4363V71.0994H68.6927V68.0633H71.3594V65.75C71.3594 63.1189 72.9273 61.6644 75.3255 61.6644C76.4744 61.6644 77.6763 61.8697 77.6763 61.8697V64.4539H76.3516C75.048 64.4539 74.6402 65.263 74.6402 66.0945V68.0633H77.552L77.087 71.0994H74.6406V78.4372C79.6609 77.6492 83.5 73.3053 83.5 68.0633Z" fill="#006494"/>
<path d="M163.156 40.6109C163.092 40.7286 162.997 40.8267 162.881 40.8951C162.766 40.9636 162.634 40.9998 162.5 41H158C157.874 41 157.75 40.9681 157.639 40.9073C157.528 40.8465 157.435 40.7587 157.367 40.6522L153.571 34.6869L148.055 40.7544C147.921 40.8988 147.735 40.9845 147.537 40.9927C147.34 41.0009 147.148 40.9311 147.002 40.7984C146.856 40.6657 146.768 40.4807 146.757 40.2836C146.747 40.0866 146.814 39.8933 146.945 39.7456L152.736 33.3706L146.867 24.1531C146.795 24.0397 146.754 23.909 146.75 23.7746C146.746 23.6402 146.777 23.5071 146.842 23.3892C146.907 23.2713 147.002 23.173 147.118 23.1045C147.234 23.036 147.366 22.9999 147.5 23H152C152.126 23 152.25 23.0319 152.361 23.0927C152.472 23.1535 152.565 23.2413 152.633 23.3478L156.429 29.3131L161.945 23.2456C162.079 23.1012 162.265 23.0155 162.463 23.0073C162.66 22.9991 162.852 23.0689 162.998 23.2016C163.144 23.3343 163.232 23.5193 163.243 23.7164C163.253 23.9134 163.186 24.1067 163.055 24.2544L157.264 30.6247L163.133 39.8478C163.205 39.9613 163.245 40.0919 163.249 40.2262C163.253 40.3604 163.221 40.4933 163.156 40.6109Z" fill="#484848"/>
<path d="M163.156 76.6109C163.092 76.7286 162.997 76.8267 162.881 76.8951C162.766 76.9636 162.634 76.9998 162.5 77H158C157.874 77 157.75 76.9681 157.639 76.9073C157.528 76.8465 157.435 76.7587 157.367 76.6522L153.571 70.6869L148.055 76.7544C147.921 76.8988 147.735 76.9845 147.537 76.9927C147.34 77.0009 147.148 76.9311 147.002 76.7984C146.856 76.6657 146.768 76.4807 146.757 76.2836C146.747 76.0866 146.814 75.8933 146.945 75.7456L152.736 69.3706L146.867 60.1531C146.795 60.0397 146.754 59.909 146.75 59.7746C146.746 59.6402 146.777 59.5071 146.842 59.3892C146.907 59.2713 147.002 59.173 147.118 59.1045C147.234 59.036 147.366 58.9999 147.5 59H152C152.126 59 152.25 59.0319 152.361 59.0927C152.472 59.1535 152.565 59.2413 152.633 59.3478L156.429 65.3131L161.945 59.2456C162.079 59.1012 162.265 59.0155 162.463 59.0073C162.66 58.9991 162.852 59.0689 162.998 59.2016C163.144 59.3343 163.232 59.5193 163.243 59.7164C163.253 59.9134 163.186 60.1067 163.055 60.2544L157.264 66.6247L163.133 75.8478C163.205 75.9613 163.245 76.0919 163.249 76.2262C163.253 76.3604 163.221 76.4933 163.156 76.6109Z" fill="#006494"/>
<path fill-rule="evenodd" clip-rule="evenodd" d="M121.546 39.5458H118.368V34.5723C118.368 33.3868 118.348 31.8611 116.717 31.8611C115.063 31.8611 114.81 33.1533 114.81 34.4878V39.5458H111.636V29.3193H114.682V30.7177H114.726C115.151 29.9133 116.187 29.0656 117.733 29.0656C120.952 29.0656 121.546 31.1827 121.546 33.9371V39.5458ZM108.053 27.9221C107.811 27.9223 107.571 27.8747 107.347 27.7822C107.123 27.6896 106.92 27.5539 106.749 27.3827C106.577 27.2115 106.442 27.0082 106.349 26.7845C106.256 26.5608 106.209 26.321 106.209 26.0788C106.209 25.5901 106.403 25.1214 106.748 24.7758C107.094 24.4301 107.563 24.236 108.051 24.236C108.54 24.236 109.009 24.4301 109.355 24.7758C109.7 25.1214 109.894 25.5901 109.894 26.0788C109.894 26.5675 109.701 27.0361 109.355 27.3818C109.01 27.7274 108.541 27.9218 108.053 27.9221ZM106.461 39.5458H109.642V29.3193H106.461L106.461 39.5458ZM123.129 21.2857H104.866C103.994 21.2857 103.286 21.9774 103.286 22.8311V41.1684C103.286 42.0221 103.994 42.7147 104.866 42.7147H123.129C124.003 42.7147 124.714 42.0221 124.714 41.1684V22.8311C124.714 21.9774 124.002 21.2857 123.129 21.2857Z" fill="#484848"/>
<path fill-rule="evenodd" clip-rule="evenodd" d="M121.546 75.5458H118.368V70.5723C118.368 69.3868 118.348 67.8611 116.717 67.8611C115.063 67.8611 114.81 69.1533 114.81 70.4878V75.5458H111.636V65.3193H114.682V66.7177H114.726C115.151 65.9133 116.187 65.0656 117.733 65.0656C120.952 65.0656 121.546 67.1827 121.546 69.9371V75.5458ZM108.053 63.9221C107.811 63.9223 107.571 63.8747 107.347 63.7822C107.123 63.6896 106.92 63.5539 106.749 63.3827C106.577 63.2115 106.442 63.0082 106.349 62.7845C106.256 62.5608 106.209 62.321 106.209 62.0788C106.209 61.5901 106.403 61.1214 106.748 60.7758C107.094 60.4301 107.563 60.236 108.051 60.236C108.54 60.236 109.009 60.4301 109.355 60.7758C109.7 61.1214 109.894 61.5901 109.894 62.0788C109.894 62.5675 109.701 63.0361 109.355 63.3818C109.01 63.7274 108.541 63.9218 108.053 63.9221ZM106.461 75.5458H109.642V65.3193H106.461L106.461 75.5458ZM123.129 57.2857H104.866C103.994 57.2857 103.286 57.9774 103.286 58.8311V77.1684C103.286 78.0221 103.994 78.7147 104.866 78.7147H123.129C124.003 78.7147 124.714 78.0221 124.714 77.1684V58.8311C124.714 57.9774 124.002 57.2857 123.129 57.2857Z" fill="#006494"/>
<path d="M36.5 22.25H27.5C26.1081 22.2515 24.7736 22.8051 23.7893 23.7893C22.8051 24.7736 22.2515 26.1081 22.25 27.5V36.5C22.2515 37.8919 22.8051 39.2264 23.7893 40.2107C24.7736 41.1949 26.1081 41.7485 27.5 41.75H36.5C37.8919 41.7485 39.2264 41.1949 40.2107 40.2107C41.1949 39.2264 41.7485 37.8919 41.75 36.5V27.5C41.7485 26.1081 41.1949 24.7736 40.2107 23.7893C39.2264 22.8051 37.8919 22.2515 36.5 22.25ZM32 36.5C31.11 36.5 30.24 36.2361 29.4999 35.7416C28.7599 35.2471 28.1831 34.5443 27.8425 33.7221C27.5019 32.8998 27.4128 31.995 27.5865 31.1221C27.7601 30.2492 28.1887 29.4474 28.818 28.818C29.4474 28.1887 30.2492 27.7601 31.1221 27.5865C31.995 27.4128 32.8998 27.5019 33.7221 27.8425C34.5443 28.1831 35.2471 28.7599 35.7416 29.4999C36.2361 30.24 36.5 31.11 36.5 32C36.4988 33.1931 36.0243 34.337 35.1806 35.1806C34.337 36.0243 33.1931 36.4988 32 36.5ZM37.625 27.5C37.4025 27.5 37.185 27.434 37 27.3104C36.815 27.1868 36.6708 27.0111 36.5856 26.8055C36.5005 26.6 36.4782 26.3738 36.5216 26.1555C36.565 25.9373 36.6722 25.7368 36.8295 25.5795C36.9868 25.4222 37.1873 25.315 37.4055 25.2716C37.6238 25.2282 37.85 25.2505 38.0555 25.3356C38.2611 25.4208 38.4368 25.565 38.5604 25.75C38.684 25.935 38.75 26.1525 38.75 26.375C38.75 26.6734 38.6315 26.9595 38.4205 27.1705C38.2095 27.3815 37.9234 27.5 37.625 27.5ZM35 32C35 32.5933 34.8241 33.1734 34.4944 33.6667C34.1648 34.1601 33.6962 34.5446 33.1481 34.7716C32.5999 34.9987 31.9967 35.0581 31.4147 34.9424C30.8328 34.8266 30.2982 34.5409 29.8787 34.1213C29.4591 33.7018 29.1734 33.1672 29.0576 32.5853C28.9419 32.0033 29.0013 31.4001 29.2284 30.8519C29.4554 30.3038 29.8399 29.8352 30.3333 29.5056C30.8266 29.1759 31.4067 29 32 29C32.7956 29 33.5587 29.3161 34.1213 29.8787C34.6839 30.4413 35 31.2044 35 32Z" fill="#484848"/>
<path d="M36.5 58.25H27.5C26.1081 58.2515 24.7736 58.8051 23.7893 59.7893C22.8051 60.7736 22.2515 62.1081 22.25 63.5V72.5C22.2515 73.8919 22.8051 75.2264 23.7893 76.2107C24.7736 77.1949 26.1081 77.7485 27.5 77.75H36.5C37.8919 77.7485 39.2264 77.1949 40.2107 76.2107C41.1949 75.2264 41.7485 73.8919 41.75 72.5V63.5C41.7485 62.1081 41.1949 60.7736 40.2107 59.7893C39.2264 58.8051 37.8919 58.2515 36.5 58.25ZM32 72.5C31.11 72.5 30.24 72.2361 29.4999 71.7416C28.7599 71.2471 28.1831 70.5443 27.8425 69.7221C27.5019 68.8998 27.4128 67.995 27.5865 67.1221C27.7601 66.2492 28.1887 65.4474 28.818 64.818C29.4474 64.1887 30.2492 63.7601 31.1221 63.5865C31.995 63.4128 32.8998 63.5019 33.7221 63.8425C34.5443 64.1831 35.2471 64.7599 35.7416 65.4999C36.2361 66.24 36.5 67.11 36.5 68C36.4988 69.1931 36.0243 70.337 35.1806 71.1806C34.337 72.0243 33.1931 72.4988 32 72.5ZM37.625 63.5C37.4025 63.5 37.185 63.434 37 63.3104C36.815 63.1868 36.6708 63.0111 36.5856 62.8055C36.5005 62.6 36.4782 62.3738 36.5216 62.1555C36.565 61.9373 36.6722 61.7368 36.8295 61.5795C36.9868 61.4222 37.1873 61.315 37.4055 61.2716C37.6238 61.2282 37.85 61.2505 38.0555 61.3356C38.2611 61.4208 38.4368 61.565 38.5604 61.75C38.684 61.935 38.75 62.1525 38.75 62.375C38.75 62.6734 38.6315 62.9595 38.4205 63.1705C38.2095 63.3815 37.9234 63.5 37.625 63.5ZM35 68C35 68.5933 34.8241 69.1734 34.4944 69.6667C34.1648 70.1601 33.6962 70.5446 33.1481 70.7716C32.5999 70.9987 31.9967 71.0581 31.4147 70.9424C30.8328 70.8266 30.2982 70.5409 29.8787 70.1213C29.4591 69.7018 29.1734 69.1672 29.0576 68.5853C28.9419 68.0033 29.0013 67.4001 29.2284 66.8519C29.4554 66.3038 29.8399 65.8352 30.3333 65.5056C30.8266 65.1759 31.4067 65 32 65C32.7956 65 33.5587 65.3161 34.1213 65.8787C34.6839 66.4413 35 67.2044 35 68Z" fill="#006494"/>
</svg>
