<svg width="48" height="48" viewBox="0 0 48 48" fill="none" xmlns="http://www.w3.org/2000/svg">
<path d="M32.5714 5.14267H37.7143C38.6236 5.14267 39.4957 5.50389 40.1387 6.14687C40.7816 6.78986 41.1429 7.66193 41.1429 8.57124V42.857C41.1429 43.7663 40.7816 44.6383 40.1387 45.2813C39.4957 45.9243 38.6236 46.2855 37.7143 46.2855H10.2857C9.3764 46.2855 8.50433 45.9243 7.86135 45.2813C7.21837 44.6383 6.85715 43.7663 6.85715 42.857V8.57124C6.85715 7.66193 7.21837 6.78986 7.86135 6.14687C8.50433 5.50389 9.3764 5.14267 10.2857 5.14267H15.4286" stroke="#02A4EF" stroke-width="3.42857" stroke-linecap="round" stroke-linejoin="round"/>
<path d="M25.5496 30.2845L34.1211 38.8559M34.1279 30.2845L25.5565 38.8559M29.1428 1.7142H18.8571C17.9477 1.7142 17.0757 2.07543 16.4327 2.71841C15.7897 3.36139 15.4285 4.23346 15.4285 5.14277V6.85706C15.4285 7.76637 15.7897 8.63844 16.4327 9.28143C17.0757 9.92441 17.9477 10.2856 18.8571 10.2856H29.1428C30.0521 10.2856 30.9242 9.92441 31.5671 9.28143C32.2101 8.63844 32.5713 7.76637 32.5713 6.85706V5.14277C32.5713 4.23346 32.2101 3.36139 31.5671 2.71841C30.9242 2.07543 30.0521 1.7142 29.1428 1.7142ZM13.8719 21.2673C13.8719 22.404 14.3234 23.4941 15.1272 24.2978C15.9309 25.1015 17.021 25.5531 18.1576 25.5531C19.2943 25.5531 20.3844 25.1015 21.1881 24.2978C21.9918 23.4941 22.4433 22.404 22.4433 21.2673C22.4433 20.1307 21.9918 19.0406 21.1881 18.2369C20.3844 17.4332 19.2943 16.9816 18.1576 16.9816C17.021 16.9816 15.9309 17.4332 15.1272 18.2369C14.3234 19.0406 13.8719 20.1307 13.8719 21.2673Z" stroke="#02A4EF" stroke-width="3.42857" stroke-linecap="round" stroke-linejoin="round"/>
</svg>
